<svg xmlns="http://www.w3.org/2000/svg" width="25" height="35" fillRule="evenodd" clipRule="evenodd"
  imageRendering="optimizeQuality" shapeRendering="geometricPrecision" textRendering="geometricPrecision" version="1.1"
  viewBox="0 0 31.342 39.989" xmlSpace="preserve">
  <g transform="translate(-945.835 -1512.35)">
    <g transform="matrix(.0795 0 0 .0795 870.642 1392.154)">

      <path d="M1313 1709c0-94-76-170-170-170s-170 76-170 170c0 81 57 150 134 166l36 40 40-41c75-18 130-85 130-165z"
        className="fil1" fill="#FFCF2E"></path>
      <path d="M1207 1993c0 12-29 22-64 22s-64-10-64-22 29-21 64-21 64 9 64 21z" className="fil1" fill="#FFCF2E"></path>
      <path
        d="M1124 1738h37c0-25 41-30 41-69 0-28-26-44-62-44-33 0-56 12-69 32l30 17c7-11 19-18 35-18s26 8 26 20c0 21-38 28-38 62zm19 61c13 0 23-10 23-22s-10-21-23-21c-14 0-24 9-24 21s10 22 24 22z"
        className="fil2" fill='black'></path>
      <path
        d="M1263 1588c22 29 36 66 36 106 0 76-50 141-119 164-16 21-37 57-37 57l40-41c75-18 130-85 130-165 0-48-19-90-50-121z"
        className="fil3" fill="#F8AC25"></path>
    </g>
  </g>
</svg>