<svg xmlns="http://www.w3.org/2000/svg" xmlnsXlink="http://www.w3.org/1999/xlink" width="1442.903" height="143.564"
  fillRule="evenodd" clipRule="evenodd" imageRendering="optimizeQuality" shapeRendering="geometricPrecision"
  textRendering="geometricPrecision" version="1.1" viewBox="0 0 1442.903 143.564" xmlSpace="preserve">
  <defs>
    <linearGradient id="id0" x1="0.949" x2="0.051" y1="1.012" y2="0" gradientUnits="objectBoundingBox">
      <stop offset="0" stopColor="#21AFE5" stopOpacity="1"></stop>
      <stop offset="1" stopColor="#45AE55" stopOpacity="1"></stop>
    </linearGradient>
    <linearGradient id="linearGradient1023" x1="846.875" x2="2289.779" y1="1000.43" y2="1000.43"
      gradientUnits="userSpaceOnUse" xlinkHref="#id0"></linearGradient>
    <linearGradient id="linearGradient1025" x1="846.875" x2="2289.779" y1="1000.43" y2="1000.43"
      gradientUnits="userSpaceOnUse" xlinkHref="#id0"></linearGradient>
    <linearGradient id="linearGradient1027" x1="846.875" x2="2289.779" y1="1000.43" y2="1000.43"
      gradientUnits="userSpaceOnUse" xlinkHref="#id0"></linearGradient>
    <linearGradient id="linearGradient1029" x1="846.875" x2="2289.779" y1="1000.43" y2="1000.43"
      gradientUnits="userSpaceOnUse" xlinkHref="#id0"></linearGradient>
    <linearGradient id="linearGradient1031" x1="846.875" x2="2289.779" y1="1000.43" y2="1000.43"
      gradientUnits="userSpaceOnUse" xlinkHref="#id0"></linearGradient>
    <linearGradient id="linearGradient1033" x1="846.875" x2="2289.779" y1="1000.43" y2="1000.43"
      gradientUnits="userSpaceOnUse" xlinkHref="#id0"></linearGradient>
    <linearGradient id="linearGradient1035" x1="846.875" x2="2289.779" y1="1000.43" y2="1000.43"
      gradientUnits="userSpaceOnUse" xlinkHref="#id0"></linearGradient>
    <linearGradient id="linearGradient1037" x1="846.875" x2="2289.779" y1="1000.43" y2="1000.43"
      gradientUnits="userSpaceOnUse" xlinkHref="#id0"></linearGradient>
    <linearGradient id="linearGradient1039" x1="846.875" x2="2289.779" y1="1000.43" y2="1000.43"
      gradientUnits="userSpaceOnUse" xlinkHref="#id0"></linearGradient>
    <linearGradient id="linearGradient1041" x1="846.875" x2="2289.779" y1="1000.43" y2="1000.43"
      gradientUnits="userSpaceOnUse" xlinkHref="#id0"></linearGradient>
    <linearGradient id="linearGradient1043" x1="846.875" x2="2289.779" y1="1000.43" y2="1000.43"
      gradientUnits="userSpaceOnUse" xlinkHref="#id0"></linearGradient>
    <linearGradient id="linearGradient1045" x1="846.875" x2="2289.779" y1="1000.43" y2="1000.43"
      gradientUnits="userSpaceOnUse" xlinkHref="#id0"></linearGradient>
    <linearGradient id="linearGradient1047" x1="846.875" x2="2289.779" y1="1000.43" y2="1000.43"
      gradientUnits="userSpaceOnUse" xlinkHref="#id0"></linearGradient>
    <linearGradient id="linearGradient1049" x1="846.875" x2="2289.779" y1="1000.43" y2="1000.43"
      gradientUnits="userSpaceOnUse" xlinkHref="#id0"></linearGradient>
    <linearGradient id="linearGradient1051" x1="846.875" x2="2289.779" y1="1000.43" y2="1000.43"
      gradientUnits="userSpaceOnUse" xlinkHref="#id0"></linearGradient>
    <linearGradient id="linearGradient1053" x1="846.875" x2="2289.779" y1="1000.43" y2="1000.43"
      gradientUnits="userSpaceOnUse" xlinkHref="#id0"></linearGradient>
    <linearGradient id="linearGradient1055" x1="846.875" x2="2289.779" y1="1000.43" y2="1000.43"
      gradientUnits="userSpaceOnUse" xlinkHref="#id0"></linearGradient>
    <linearGradient id="linearGradient1057" x1="846.875" x2="2289.779" y1="1000.43" y2="1000.43"
      gradientUnits="userSpaceOnUse" xlinkHref="#id0"></linearGradient>
    <linearGradient id="linearGradient1059" x1="846.875" x2="2289.779" y1="1000.43" y2="1000.43"
      gradientUnits="userSpaceOnUse" xlinkHref="#id0"></linearGradient>
    <linearGradient id="linearGradient1061" x1="846.875" x2="2289.779" y1="1000.43" y2="1000.43"
      gradientUnits="userSpaceOnUse" xlinkHref="#id0"></linearGradient>
    <linearGradient id="linearGradient1063" x1="846.875" x2="2289.779" y1="1000.43" y2="1000.43"
      gradientUnits="userSpaceOnUse" xlinkHref="#id0"></linearGradient>
    <linearGradient id="linearGradient1065" x1="846.875" x2="2289.779" y1="1000.43" y2="1000.43"
      gradientUnits="userSpaceOnUse" xlinkHref="#id0"></linearGradient>
    <linearGradient id="linearGradient1067" x1="846.875" x2="2289.779" y1="1000.43" y2="1000.43"
      gradientUnits="userSpaceOnUse" xlinkHref="#id0"></linearGradient>
    <linearGradient id="linearGradient1069" x1="846.875" x2="2289.779" y1="1000.43" y2="1000.43"
      gradientUnits="userSpaceOnUse" xlinkHref="#id0"></linearGradient>
    <linearGradient id="linearGradient1071" x1="846.875" x2="2289.779" y1="1000.43" y2="1000.43"
      gradientUnits="userSpaceOnUse" xlinkHref="#id0"></linearGradient>
    <linearGradient id="linearGradient1073" x1="846.875" x2="2289.779" y1="1000.43" y2="1000.43"
      gradientUnits="userSpaceOnUse" xlinkHref="#id0"></linearGradient>
    <linearGradient id="linearGradient1075" x1="846.875" x2="2289.779" y1="1000.43" y2="1000.43"
      gradientUnits="userSpaceOnUse" xlinkHref="#id0"></linearGradient>
  </defs>
  <g transform="translate(-846.875 -928.648)">
    <g fill="url(#linearGradient1023)" fillOpacity="1">
      <path fill="url(#linearGradient1025)" fillOpacity="1"
        d="M929 1013l-4 40-75 5c0-20 1-41 1-62 1-20 1-41 2-62h46c-1 14-3 27-4 40s-2 26-2 39h36z" className="fil0">
      </path>
      <path fill="url(#linearGradient1027)" fillOpacity="1"
        d="M1043 1001c0 5 0 10-2 15-1 5-3 10-5 15-2 4-5 8-8 12l-12 9c-4 3-9 5-14 6-4 2-10 2-15 2-6 0-11 0-16-2-4-1-9-3-13-5l-12-9c-3-4-6-8-8-12-3-4-5-9-6-14s-2-10-2-15 1-10 2-15 3-10 5-14c3-5 5-9 9-12 3-4 7-7 11-10s9-5 13-6c5-2 10-2 16-2 8 0 16 1 23 4 7 2 13 6 19 11 5 5 8 11 11 18s4 15 4 24zm-39 2c0-3-1-5-1-7-1-3-2-5-4-7-1-2-3-3-5-4-2-2-5-2-7-2-3 0-6 0-8 1s-4 3-5 5c-2 1-3 3-4 6-1 2-1 5-1 7 0 3 0 5 1 8 0 2 2 4 3 6s3 4 5 5c2 2 5 2 8 2 2 0 5 0 7-1 2-2 4-3 6-5 1-2 3-4 3-6 1-3 2-5 2-8z"
        className="fil0"></path>
      <path fill="url(#linearGradient1029)" fillOpacity="1"
        d="M1138 938l-5 38c-2-1-3-1-5-1h-5c-5 0-9 0-13 1-4 2-7 3-10 6-4 2-6 5-8 9-2 3-3 7-3 12 0 3 1 6 2 8 1 3 2 4 4 6l6 3c3 1 6 1 8 1h7c3-1 5-2 7-2 3-1 5-2 7-3l6-3-3 42c-3 1-5 2-8 3s-5 2-8 2c-3 1-6 2-9 2s-5 1-8 1c-8 0-15-2-21-5-7-3-12-6-17-11s-9-11-12-17c-2-7-4-14-4-22 0-10 2-20 5-29s7-17 12-23c6-7 13-13 22-17 8-3 18-5 28-5 5 0 9 0 13 1 4 0 8 1 12 3z"
        className="fil0"></path>
      <path fill="url(#linearGradient1031)" fillOpacity="1"
        d="M1256 1056l-44 6-5-20h-21l-4 20-46-5 36-119 49-2zm-53-42l-6-31-7 31z" className="fil0"></path>
      <path fill="url(#linearGradient1033)" fillOpacity="1"
        d="M1337 1013l-4 40-75 5c0-20 0-41 1-62 0-20 1-41 2-62h46c-1 14-3 27-4 40l-3 39h37z" className="fil0"></path>
      <path fill="url(#linearGradient1035)" fillOpacity="1"
        d="M1478 993c0 8-1 16-4 22-2 7-5 13-9 18-3 5-8 10-13 14-6 3-11 7-18 9-6 2-13 4-20 5s-14 2-22 2h-8c-3 0-5-1-8-1l2-120c7-2 14-3 21-4s13-1 20-1c9 0 17 1 24 3 7 3 13 7 18 12 5 4 9 10 12 17s5 15 5 24zm-37 6c0-4 0-7-1-10s-2-5-4-8c-1-2-4-4-6-5-3-2-6-2-9-2l-4 55c4-1 7-2 10-4 3-1 5-4 7-6 2-3 4-6 5-9s2-7 2-10z"
        className="fil0"></path>
      <path fill="url(#linearGradient1037)" fillOpacity="1"
        d="M1591 1056l-44 6-6-20h-20l-4 20-46-5 36-119 49-2zm-53-42l-7-31-6 31z" className="fil0"></path>
      <path fill="url(#linearGradient1039)" fillOpacity="1"
        d="M1605 1062L1605 977 1578 978 1579 936 1677 936 1676 974 1649 975 1643 1060z" className="fil0"></path>
      <path fill="url(#linearGradient1041)" fillOpacity="1"
        d="M1782 1056l-44 6-6-20h-20l-5 20-45-5 35-119 50-2zm-53-42l-7-31-6 31z" className="fil0"></path>
      <path fill="url(#linearGradient1043)" fillOpacity="1"
        d="M1923 1032c0 5 0 9-2 13-2 3-5 6-8 9-3 2-6 4-10 6s-8 3-12 4c-5 1-9 1-13 1-5 1-9 1-12 1-4 0-8 0-12-1-4 0-8 0-12-1s-7-1-11-3c-4-1-8-2-11-4V942c3-1 7-2 10-3l12-3c4-1 8-1 11-2h25l12 3c4 1 8 3 11 5 4 2 7 4 9 7 3 3 5 7 6 10 2 4 2 9 2 14 0 3 0 6-1 9s-2 6-4 8-4 4-7 6c-2 2-5 3-8 4 4 1 7 2 10 4 4 2 6 4 8 7 3 3 4 6 6 10 1 3 1 7 1 11zm-45-51c0-2 0-3-1-4-1-2-2-3-3-3-1-1-2-2-3-2s-2-1-3-1-3 1-4 1-2 1-3 1l-1 20h6c2-1 3-1 5-2s4-2 5-3c1-2 2-4 2-7zm-13 29c-1 0-3 0-5 1v20c1 0 2 0 3 1h2c1 0 3 0 4-1 2 0 3 0 5-1l3-3c1-2 1-4 1-6s0-4-1-5c-1-2-2-3-3-4-2-1-3-1-4-1-2-1-3-1-5-1z"
        className="fil0"></path>
      <path fill="url(#linearGradient1045)" fillOpacity="1"
        d="M2041 1056l-45 6-5-20h-20l-5 20-45-5 35-119 50-2zm-53-42l-7-31-7 31z" className="fil0"></path>
      <path fill="url(#linearGradient1047)" fillOpacity="1"
        d="M2082 1062L2042 1062 2045 936 2090 934 2120 998 2122 937 2164 936 2158 1057 2111 1061 2086 996z"
        className="fil0"></path>
      <path fill="url(#linearGradient1049)" fillOpacity="1"
        d="M2209 1027L2208 1068 2171 1069 2173 932 2215 935 2212 975 2239 932 2284 936 2241 995 2278 1059 2236 1066z"
        className="fil0"></path>
      <path fill="url(#linearGradient1051)" fillOpacity="1"
        d="M929 1013l-4 40-75 5c0-20 1-41 1-62 1-20 1-41 2-62h46c-1 14-3 27-4 40s-2 26-2 39h36z" className="fil1 str0">
      </path>
      <path fill="url(#linearGradient1053)" fillOpacity="1"
        d="M1043 1001c0 5 0 10-2 15-1 5-3 10-5 15-2 4-5 8-8 12l-12 9c-4 3-9 5-14 6-4 2-10 2-15 2-6 0-11 0-16-2-4-1-9-3-13-5l-12-9c-3-4-6-8-8-12-3-4-5-9-6-14s-2-10-2-15 1-10 2-15 3-10 5-14c3-5 5-9 9-12 3-4 7-7 11-10s9-5 13-6c5-2 10-2 16-2 8 0 16 1 23 4 7 2 13 6 19 11 5 5 8 11 11 18s4 15 4 24zm-39 2c0-3-1-5-1-7-1-3-2-5-4-7-1-2-3-3-5-4-2-2-5-2-7-2-3 0-6 0-8 1s-4 3-5 5c-2 1-3 3-4 6-1 2-1 5-1 7 0 3 0 5 1 8 0 2 2 4 3 6s3 4 5 5c2 2 5 2 8 2 2 0 5 0 7-1 2-2 4-3 6-5 1-2 3-4 3-6 1-3 2-5 2-8z"
        className="fil1 str0"></path>
      <path fill="url(#linearGradient1055)" fillOpacity="1"
        d="M1138 938l-5 38c-2-1-3-1-5-1h-5c-5 0-9 0-13 1-4 2-7 3-10 6-4 2-6 5-8 9-2 3-3 7-3 12 0 3 1 6 2 8 1 3 2 4 4 6l6 3c3 1 6 1 8 1h7c3-1 5-2 7-2 3-1 5-2 7-3l6-3-3 42c-3 1-5 2-8 3s-5 2-8 2c-3 1-6 2-9 2s-5 1-8 1c-8 0-15-2-21-5-7-3-12-6-17-11s-9-11-12-17c-2-7-4-14-4-22 0-10 2-20 5-29s7-17 12-23c6-7 13-13 22-17 8-3 18-5 28-5 5 0 9 0 13 1 4 0 8 1 12 3z"
        className="fil1 str0"></path>
      <path fill="url(#linearGradient1057)" fillOpacity="1"
        d="M1256 1056l-44 6-5-20h-21l-4 20-46-5 36-119 49-2zm-53-42l-6-31-7 31z" className="fil1 str0"></path>
      <path fill="url(#linearGradient1059)" fillOpacity="1"
        d="M1337 1013l-4 40-75 5c0-20 0-41 1-62 0-20 1-41 2-62h46c-1 14-3 27-4 40l-3 39h37z" className="fil1 str0">
      </path>
      <path fill="url(#linearGradient1061)" fillOpacity="1"
        d="M1478 993c0 8-1 16-4 22-2 7-5 13-9 18-3 5-8 10-13 14-6 3-11 7-18 9-6 2-13 4-20 5s-14 2-22 2h-8c-3 0-5-1-8-1l2-120c7-2 14-3 21-4s13-1 20-1c9 0 17 1 24 3 7 3 13 7 18 12 5 4 9 10 12 17s5 15 5 24zm-37 6c0-4 0-7-1-10s-2-5-4-8c-1-2-4-4-6-5-3-2-6-2-9-2l-4 55c4-1 7-2 10-4 3-1 5-4 7-6 2-3 4-6 5-9s2-7 2-10z"
        className="fil1 str0"></path>
      <path fill="url(#linearGradient1063)" fillOpacity="1"
        d="M1591 1056l-44 6-6-20h-20l-4 20-46-5 36-119 49-2zm-53-42l-7-31-6 31z" className="fil1 str0"></path>
      <path fill="url(#linearGradient1065)" fillOpacity="1"
        d="M1605 1062L1605 977 1578 978 1579 936 1677 936 1676 974 1649 975 1643 1060z" className="fil1 str0"></path>
      <path fill="url(#linearGradient1067)" fillOpacity="1"
        d="M1782 1056l-44 6-6-20h-20l-5 20-45-5 35-119 50-2zm-53-42l-7-31-6 31z" className="fil1 str0"></path>
      <path fill="url(#linearGradient1069)" fillOpacity="1"
        d="M1923 1032c0 5 0 9-2 13-2 3-5 6-8 9-3 2-6 4-10 6s-8 3-12 4c-5 1-9 1-13 1-5 1-9 1-12 1-4 0-8 0-12-1-4 0-8 0-12-1s-7-1-11-3c-4-1-8-2-11-4V942c3-1 7-2 10-3l12-3c4-1 8-1 11-2h25l12 3c4 1 8 3 11 5 4 2 7 4 9 7 3 3 5 7 6 10 2 4 2 9 2 14 0 3 0 6-1 9s-2 6-4 8-4 4-7 6c-2 2-5 3-8 4 4 1 7 2 10 4 4 2 6 4 8 7 3 3 4 6 6 10 1 3 1 7 1 11zm-45-51c0-2 0-3-1-4-1-2-2-3-3-3-1-1-2-2-3-2s-2-1-3-1-3 1-4 1-2 1-3 1l-1 20h6c2-1 3-1 5-2s4-2 5-3c1-2 2-4 2-7zm-13 29c-1 0-3 0-5 1v20c1 0 2 0 3 1h2c1 0 3 0 4-1 2 0 3 0 5-1l3-3c1-2 1-4 1-6s0-4-1-5c-1-2-2-3-3-4-2-1-3-1-4-1-2-1-3-1-5-1z"
        className="fil1 str0"></path>
      <path fill="url(#linearGradient1071)" fillOpacity="1"
        d="M2041 1056l-45 6-5-20h-20l-5 20-45-5 35-119 50-2zm-53-42l-7-31-7 31z" className="fil1 str0"></path>
      <path fill="url(#linearGradient1073)" fillOpacity="1"
        d="M2082 1062L2042 1062 2045 936 2090 934 2120 998 2122 937 2164 936 2158 1057 2111 1061 2086 996z"
        className="fil1 str0"></path>
      <path fill="url(#linearGradient1075)" fillOpacity="1"
        d="M2209 1027L2208 1068 2171 1069 2173 932 2215 935 2212 975 2239 932 2284 936 2241 995 2278 1059 2236 1066z"
        className="fil1 str0"></path>
    </g>
  </g>
</svg>