<svg xmlns="http://www.w3.org/2000/svg" width="21.181" height="20" fillRule="evenodd" clipRule="evenodd"
  imageRendering="optimizeQuality" shapeRendering="geometricPrecision" textRendering="geometricPrecision" version="1.1"
  viewBox="0 0 21.181 19.994" xmlSpace="preserve">
  <g transform="translate(-1229.41 -1744)">
    <path strokeWidth="0.004"
      d="M1238.49 1743.997c0 .081.215 1.778.215 1.778l2.07-.242 8.083.843 1.406 5.317-1.82 1.48s1.426.833 1.45.914c.029.08-.14 2.231-.14 2.231l.837 2.397-.278 1.065s-2.783 2.404-2.783 2.485c0 .08.33 1.732.33 1.732l-3.483-.949-.534.158-2.464.471-.653-1.272-.812.534-.555-.6-.443-.756s-2.14-.587-2.095-.717c.047-.13.141-.76.141-.76l-1.708-.34-.31.935-1.296-1.125.394-.657-3.026-1.012.01-1.768-.397-1.722s.161-1.792 0-1.89c-.165-.099-1.188-.9-1.17-1.073.018-.168-.05-.892-.05-.892l.531-.337-.263-2.387 4.013-1.613s.478-1.09.633-.987c.154.098 4.171-1.24 4.171-1.24z"
      fill="white"></path>
  </g>
</svg>