<svg xmlns="http://www.w3.org/2000/svg" width="100%" height="100%" fillRule="evenodd" clipRule="evenodd"
  imageRendering="optimizeQuality" shapeRendering="geometricPrecision" textRendering="geometricPrecision" version="1.1"
  viewBox="0 0 33.858 31.991" xmlSpace="preserve">
  <g transform="translate(-493 -811.497)">
    <g transform="matrix(.03116 0 0 .03116 477.639 786.223)">
      <path
        d="M1338 1255c-7 8-13 16-19 24v381c0 33-27 59-59 59H671c-33 0-59-26-59-59v-589c0-32 26-59 59-59h556c22-26 43-51 64-75l19-21 10-12c-19-7-39-10-60-10H671c-98 0-178 79-178 177v589c0 98 80 178 178 178h589c98 0 177-80 177-178v-525c-30 35-63 74-99 120z"
        fill="green"></path>
      <path
        d="M1571 841c-17-29-54-39-83-21-16 9-31 20-46 31l-21 18c-7 6-13 13-20 19-13 13-25 26-38 40l-18 20-18 21c-25 27-48 55-71 82l-35 43-33 42c-45 58-88 116-129 175-21 29-41 59-61 89-7 11-15 23-22 34-16-13-30-28-43-44-26-33-46-73-63-116l-1-1c-11-29-43-44-73-35-31 10-48 43-38 75 8 26 18 52 30 78 11 25 26 51 43 75s37 47 59 67 46 37 71 52c30 18 69 10 89-19l1-2c20-29 40-57 60-86s41-57 62-85c42-57 84-113 128-168 44-54 88-108 134-160l18-20 17-19c12-12 24-25 36-38 11-13 22-26 33-40 11-13 21-27 31-42l1-3c11-18 12-42 0-62z"
        fill="green"></path>
    </g>
  </g>
</svg>