<svg xmlns="http://www.w3.org/2000/svg" width="14.702" height="20" fillRule="evenodd" clipRule="evenodd"
  imageRendering="optimizeQuality" shapeRendering="geometricPrecision" textRendering="geometricPrecision" version="1.1"
  viewBox="0 0 14.702 19.994" xmlSpace="preserve">
  <g transform="translate(-684 -552.437)">
    <path strokeWidth="0.01"
      d="M698.313 552.435H685.92c-1.297.365-1.93 1.162-1.902 2.391C684 565.191 684 570.37 684 570.37c.144 1.21.692 1.902 1.623 2.065h1.009v-.02l11.421-.038c.932.01.788-.999.03-.941l-12.114.048c-.624-.134-.912-.615-.855-1.431.058-.423.327-.72.807-.884h12.507c.096.01.173-.048.163-.125v-16.378c0-.134-.029-.24-.278-.23z"
      fill="white"></path>
  </g>
</svg>