<svg xmlns="http://www.w3.org/2000/svg" width="100%" height="100%" fillRule="evenodd" clipRule="evenodd"
  imageRendering="optimizeQuality" shapeRendering="geometricPrecision" textRendering="geometricPrecision" version="1.1"
  viewBox="0 0 33.174 31.991" xmlSpace="preserve">
  <g transform="translate(-252 -285.5)">
    <g transform="matrix(.0339 0 0 .0339 243.458 275.834)">
      <path
        d="M1191 512c-3 2-113 88-113 88v451c0 33-27 60-59 60H430c-33 0-59-27-59-60V463c0-33 26-60 59-60h532c47-33 95-65 144-95-26-15-56-23-87-23H430c-98 0-178 80-178 178v588c0 98 80 178 178 178h589c98 0 177-80 177-178V508z"
        fill="red"></path>
      <path
        d="M1141 342c-65 39-127 81-187 126-59 45-117 91-174 140-15 14-31 27-46 41-5-6-10-11-15-17l-21-28-11-14-10-15-20-28c-4-5-7-10-10-15s-7-10-11-14c-4-5-9-9-14-13-5-3-11-7-18-9l-9-3c-6-2-12-3-19-4-39-1-72 29-74 68-1 31 13 54 28 76l23 32 12 16 13 16 25 31c6 8 13 16 20 23-2 3-5 5-7 7l-40 39c-13 14-26 27-39 40s-25 27-37 42c-5 7-11 15-16 23-3 4-5 8-7 12-3 5-5 9-7 14-8 16-8 37 1 54 16 31 53 43 83 27l4-2c4-2 8-4 12-7 3-2 7-5 11-8 7-5 14-11 21-16 14-12 27-24 39-37 13-13 26-26 38-39l38-38c4-3 7-6 10-9l18 15c6 4 11 8 16 13l16 12 17 11c5 4 11 8 16 12 6 4 11 7 17 11s12 7 17 11c6 3 12 7 18 10l18 10 18 9c6 3 12 6 19 9 6 3 12 6 19 8 4 2 7 3 10 4l12 4c25 9 53 1 68-22 18-26 12-63-15-81l-10-7-1-1h-1l-3-2c-3-1-5-3-7-4-5-3-10-6-14-9l-15-9c-4-3-9-6-14-10l-14-10c-5-3-9-7-14-10-4-3-9-7-14-10-4-4-9-8-13-11-5-4-9-7-14-11l-13-12-13-11c-4-4-8-8-13-12l-7-7c14-13 29-26 43-39l40-36 41-36c13-12 27-23 40-35l21-17 10-9 10-8 42-34 42-33 21-17c7-5 15-10 22-15l43-32 1-1c24-19 31-52 15-79-17-28-53-37-81-20z"
        fill="red"></path>
    </g>
  </g>
</svg>